<?xml version="1.0" standalone="no"?>
<!DOCTYPE svg PUBLIC "-//W3C//DTD SVG 20010904//EN"
 "http://www.w3.org/TR/2001/REC-SVG-20010904/DTD/svg10.dtd">
<svg version="1.0" xmlns="http://www.w3.org/2000/svg"
 width="813.000000pt" height="548.000000pt" viewBox="0 0 813.000000 548.000000"
 preserveAspectRatio="xMidYMid meet">

<g transform="translate(0.000000,548.000000) scale(0.100000,-0.100000)"
fill="#000000" stroke="none">
<path d="M16 5464 c-14 -14 -16 -275 -16 -2720 0 -1846 3 -2711 10 -2725 10
-18 28 -19 635 -19 l624 0 25 33 c13 17 533 770 1155 1672 623 902 1136 1642
1141 1643 7 2 10 -593 10 -1660 0 -1281 3 -1667 12 -1676 9 -9 160 -12 619
-12 539 0 609 2 623 16 14 14 16 274 16 2717 0 2430 -2 2705 -16 2725 l-15 22
-619 0 -619 0 -39 -52 c-22 -29 -540 -777 -1152 -1663 -611 -885 -1118 -1617
-1126 -1625 -12 -12 -14 222 -14 1641 0 1481 -2 1657 -16 1677 l-15 22 -604 0
c-535 0 -605 -2 -619 -16z"/>
<path d="M5098 5469 c-17 -9 -18 -48 -18 -592 0 -440 3 -586 12 -595 17 -17
3009 -17 3026 0 9 9 12 155 12 595 0 565 -1 583 -19 593 -27 14 -2989 13
-3013 -1z"/>
<path d="M5089 3233 c-12 -13 -14 -118 -14 -590 0 -557 1 -575 19 -589 30 -21
2362 -21 2392 0 18 14 19 33 22 582 2 498 1 570 -13 590 l-15 24 -1189 0
c-1093 0 -1190 -1 -1202 -17z"/>
</g>
</svg>
